<?xml version="1.0" encoding="UTF-8" standalone="no"?>
<!DOCTYPE svg PUBLIC "-//W3C//DTD SVG 1.1//EN" "http://www.w3.org/Graphics/SVG/1.1/DTD/svg11.dtd">
<svg width="100%" height="100%" viewBox="0 0 800 800" baseProfile="tiny-ps" version="1.2" xmlns="http://www.w3.org/2000/svg" xmlns:xlink="http://www.w3.org/1999/xlink" xml:space="preserve" xmlns:serif="http://www.serif.com/" style="fill-rule:evenodd;clip-rule:evenodd;stroke-linejoin:round;stroke-miterlimit:2;">
    <title>andreas.eu</title>
    <g transform="matrix(4.49158,0,0,4.49158,80.0003,121.484)">
        <path d="M22.306,81.132C23.567,79.893 24.276,78.976 25.086,77.407C25.897,75.838 26.678,74.254 27.486,72.684C28.991,69.754 30.517,66.834 32.056,63.922C35.184,58.003 38.408,52.131 41.72,46.313C45.161,40.269 48.699,34.277 52.349,28.356C55.596,23.086 58.687,17.522 62.692,12.778C64.402,10.751 66.815,7.932 69.374,7.004C72.092,6.019 72.162,8.925 72.339,10.636C72.524,12.432 72.634,14.236 72.678,16.04C72.851,23.121 72.017,30.183 70.965,37.172C68.864,51.124 66.53,65.039 64.446,78.993C63.271,86.862 62.12,94.735 60.993,102.611C59.902,110.236 58.499,118.296 59.61,125.988C59.707,126.659 61.865,127.161 61.881,126.435C62.049,118.764 62.469,111.274 63.499,103.662C64.515,96.144 65.583,88.632 66.666,81.123C68.823,66.178 71.298,51.271 73.314,36.306C74.272,29.201 74.943,22.015 74.566,14.841C74.437,12.391 74.741,8.414 72.87,6.51C71.186,4.795 68.633,5.249 66.741,6.301C61.299,9.325 57.596,14.672 54.166,19.693C50.108,25.633 46.203,31.677 42.416,37.793C38.275,44.481 34.305,51.283 30.515,58.176C28.53,61.785 26.576,65.413 24.697,69.079C23.786,70.858 22.884,72.641 21.993,74.43C21.573,75.271 21.155,76.111 20.758,76.963C20.203,78.154 20.11,79.023 20.001,80.345C19.93,81.21 21.775,81.655 22.306,81.132" style="fill:rgb(55,53,53);fill-rule:nonzero;"/>
    </g>
    <g transform="matrix(4.49158,0,0,4.49158,80.0003,121.484)">
        <path d="M3.207,75.929C0.629,75.181 -0.049,75.092 1.175,75.662C1.432,75.776 1.698,75.854 1.975,75.896C2.673,76.03 3.235,75.909 3.928,75.787C5.374,75.533 6.813,75.234 8.259,74.972C11.385,74.405 14.518,73.875 17.657,73.384C23.901,72.407 30.172,71.6 36.461,70.982C42.652,70.374 48.857,69.918 55.072,69.642C61.401,69.36 67.725,69.442 74.053,69.283C73.307,68.834 72.56,68.386 71.812,67.936C71.47,68.679 70.932,69.077 70.169,69.321C69.273,69.607 70.139,70.308 70.675,70.426C72.355,70.793 73.898,70.499 74.924,69C75.625,67.977 73.391,67.485 72.798,67.454C60.736,66.819 48.421,67.561 36.405,68.635C24.432,69.704 12.525,71.386 0.736,73.737C-0.15,73.915 -0.183,74.577 0.354,75.164C0.976,75.844 2.339,76.099 3.207,75.929" style="fill:rgb(55,53,53);fill-rule:nonzero;"/>
    </g>
    <g transform="matrix(4.49158,0,0,4.49158,-404.329,90.4834)">
        <path d="M204.699,38.168C203.571,38.628 203.676,38.859 203.48,40.083C203.301,41.195 203.15,42.31 202.956,43.419C202.566,45.64 202.094,47.848 201.59,50.047C200.553,54.574 199.301,59.05 198.115,63.54C196.963,67.905 195.815,72.286 194.999,76.729C194.23,80.915 193.146,85.852 194.095,90.077C194.227,90.67 195.981,91.223 196.2,90.492C196.834,88.37 196.876,86.088 197.174,83.899C197.476,81.675 197.859,79.466 198.304,77.266C199.223,72.724 200.376,68.239 201.574,63.763C202.745,59.385 203.913,55.006 204.872,50.575C205.35,48.367 205.754,46.143 206.078,43.907C206.24,42.787 206.392,41.667 206.471,40.538C206.559,39.269 206.605,39.241 205.674,38.363C205.442,38.145 204.995,38.047 204.699,38.168" style="fill:rgb(55,53,53);fill-rule:nonzero;"/>
    </g>
    <g transform="matrix(4.49158,0,0,4.49158,-404.329,90.4834)">
        <path d="M233.043,0.477C229.826,18.04 227.363,35.77 224.966,53.461C222.566,71.178 220.403,88.924 218.498,106.702C217.973,111.61 217.493,116.524 217.027,121.438C216.536,126.601 215.885,131.792 215.814,136.982C215.805,137.657 217.608,138.189 217.736,137.497C219.364,128.715 219.953,119.644 220.976,110.772C221.992,101.962 223.066,93.159 224.173,84.361C226.405,66.632 228.803,48.925 231.418,31.248C232.898,21.246 234.519,11.264 235.942,1.254C236.092,0.196 233.226,-0.521 233.043,0.477" style="fill:rgb(55,53,53);fill-rule:nonzero;"/>
    </g>
    <g transform="matrix(4.49158,0,0,4.49158,-404.329,90.4834)">
        <path d="M147.887,93.494C146.743,94.432 145.393,95.132 144.156,95.942C142.796,96.832 145.735,97.808 146.451,97.616C152.086,96.1 157.583,93.656 163.093,91.729C168.775,89.741 174.483,87.826 180.24,86.064C191.525,82.611 203.02,79.715 214.709,78.016C221.516,77.027 228.328,76.747 235.176,76.264C236.243,76.188 235.337,75.337 234.723,75.298C222.919,74.54 210.674,76.485 199.157,78.941C187.168,81.497 175.422,85.072 163.812,88.979C160.559,90.074 157.317,91.197 154.079,92.334C150.794,93.489 147.303,94.454 144.156,95.942L146.967,97.368C147.789,96.295 148.492,95.108 149.446,94.15C149.911,93.684 148.307,93.15 147.887,93.494" style="fill:rgb(55,53,53);fill-rule:nonzero;"/>
    </g>
</svg>
