<?xml version="1.0" encoding="UTF-8"?>
<!DOCTYPE svg PUBLIC "-//W3C//DTD SVG 1.1//EN" "http://www.w3.org/Graphics/SVG/1.1/DTD/svg11.dtd">
<svg version="1.1" xmlns="http://www.w3.org/2000/svg" xmlns:xlink="http://www.w3.org/1999/xlink" x="0" y="0" width="359.25" height="137.821" viewBox="0, 0, 359.25, 137.821">
  <g id="Ebene_1">
    <g>
      <path d="M22.306,81.132 C23.567,79.893 24.276,78.976 25.086,77.407 C25.897,75.838 26.678,74.254 27.486,72.684 C28.991,69.754 30.517,66.834 32.056,63.922 C35.184,58.003 38.408,52.131 41.72,46.313 C45.161,40.269 48.699,34.277 52.349,28.356 C55.596,23.086 58.687,17.522 62.692,12.778 C64.402,10.751 66.815,7.932 69.374,7.004 C72.092,6.019 72.162,8.925 72.339,10.636 C72.524,12.432 72.634,14.236 72.678,16.04 C72.851,23.121 72.017,30.183 70.965,37.172 C68.864,51.124 66.53,65.039 64.446,78.993 C63.271,86.862 62.12,94.735 60.993,102.611 C59.902,110.236 58.499,118.296 59.61,125.988 C59.707,126.659 61.865,127.161 61.881,126.435 C62.049,118.764 62.469,111.274 63.499,103.662 C64.515,96.144 65.583,88.632 66.666,81.123 C68.823,66.178 71.298,51.271 73.314,36.306 C74.272,29.201 74.943,22.015 74.566,14.841 C74.437,12.391 74.741,8.414 72.87,6.51 C71.186,4.795 68.633,5.249 66.741,6.301 C61.299,9.325 57.596,14.672 54.166,19.693 C50.108,25.633 46.203,31.677 42.416,37.793 C38.275,44.481 34.305,51.283 30.515,58.176 C28.53,61.785 26.576,65.413 24.697,69.079 C23.786,70.858 22.884,72.641 21.993,74.43 C21.573,75.271 21.155,76.111 20.758,76.963 C20.203,78.154 20.11,79.023 20.001,80.345 C19.93,81.21 21.775,81.655 22.306,81.132" fill="#373535"/>
      <path d="M79.177,61.955 C77.319,64.332 76.546,68.014 75.684,70.867 C74.746,73.976 73.352,77.43 73.852,80.713 C74.019,81.811 76.688,82.377 77.212,81.373 C80.26,75.537 83.114,69.614 88.294,65.332 C87.472,65.051 86.649,64.77 85.827,64.489 C85.254,67.835 83.225,75 87.753,76.569 C89.775,77.271 91.481,76.284 93.063,75.085 C95.403,73.314 97.717,71.163 99.399,68.747 C99.692,68.327 98.56,68.022 98.281,68.276 C96.881,69.551 95.551,70.879 94.071,72.067 C93.373,72.627 92.659,73.165 91.929,73.682 C91.243,74.168 89.706,75.53 88.775,75.484 C85.872,75.34 88.026,66.651 88.385,65.174 C88.628,64.18 86.449,63.932 85.918,64.331 C80.44,68.448 76.88,74.439 73.852,80.473 C74.972,80.694 76.092,80.914 77.212,81.134 C76.68,77.972 78.138,74.398 78.984,71.38 C79.753,68.643 81.202,65.51 81.221,62.653 C81.225,61.955 79.62,61.389 79.177,61.955" fill="#373535"/>
      <path d="M109.15,65.254 C107.301,63.487 104.361,63.295 102.023,64.075 C99.313,64.98 97.436,67.267 95.975,69.622 C94.667,71.73 93.389,74.562 94.542,77.011 C95.529,79.106 98.38,80.082 100.514,79.3 C103.081,78.359 104.585,75.136 105.829,72.903 C107.341,70.188 108.488,67.271 109.4,64.304 C111.301,58.112 111.903,51.565 113.538,45.324 C113.689,44.749 112.071,44.305 111.878,44.879 C109.637,51.548 108.139,58.546 106.402,65.361 C104.66,72.199 102.705,79.021 101.191,85.913 C100.994,86.809 102.929,87.14 103.467,86.866 C104.469,86.355 105.003,85.801 105.121,84.66 C105.2,83.9 103.427,83.461 103.087,84.115 C102.695,84.867 102.216,85.302 101.45,85.64 C102.208,85.957 102.967,86.275 103.726,86.592 C105.621,79.795 107.095,72.851 108.764,65.993 C110.428,59.156 112.387,52.269 113.538,45.324 C112.985,45.175 112.432,45.027 111.878,44.879 C111.079,53.657 108.476,62.505 104.198,70.261 C103.081,72.285 101.861,74.389 100.292,76.105 C99.899,76.534 99.482,76.877 98.994,77.195 C98.335,77.623 98.381,77.669 98.022,77.035 C97.529,76.163 97.849,74.74 98.095,73.846 C99.102,70.197 103.459,63.75 107.963,65.825 C108.373,66.014 109.924,65.995 109.15,65.254" fill="#373535"/>
      <path d="M110.414,76.431 C110.381,76.444 110.347,76.456 110.314,76.47 C110.669,76.491 111.024,76.513 111.379,76.534 C111.323,76.513 111.267,76.49 111.211,76.468 L111.813,77.143 C112.036,76.032 112.688,74.974 113.114,73.922 C113.607,72.704 114.097,71.486 114.579,70.264 C115.585,67.71 116.591,65.157 117.598,62.603 C117.979,61.636 115.227,60.934 114.696,61.612 C113.281,63.415 110.76,66.932 113.596,68.533 C114.945,69.295 116.308,69.079 116.926,70.789 C117.496,72.365 117.135,74.078 117.375,75.704 C117.755,78.285 120.241,79.34 122.647,78.686 C125.313,77.96 127.774,75.847 129.581,73.834 C131.277,71.944 133.472,69.201 134.059,66.666 C134.497,64.772 133.124,63.378 131.193,63.566 C126.035,64.067 124.152,74.016 127.457,77.164 C133.049,82.491 140.441,72.642 144.455,69.781 C145.125,69.303 142.541,67.72 141.952,68.726 C140.598,71.037 137.946,72.911 135.838,74.509 C134.656,75.406 133.156,76.768 131.658,77.149 C128.658,77.913 127.904,75.129 127.963,72.937 C128.029,70.49 128.688,67.536 130.475,65.755 C131.073,65.159 131.948,64.189 132.062,65.468 C132.097,65.857 131.85,66.373 131.699,66.708 C131.173,67.877 130.349,68.988 129.596,70.015 C128.074,72.09 126.264,74.021 124.092,75.424 C123.469,75.826 121.351,77.32 120.531,77.1 C120.963,77.216 120.58,76.316 120.548,76.102 C120.443,75.386 120.467,74.657 120.453,73.935 C120.413,71.815 119.985,69.8 118.125,68.543 C117.682,68.242 117.203,68.034 116.698,67.858 C116.421,67.761 115.527,67.683 115.396,67.496 C114.739,66.556 117.065,63.364 117.49,62.789 C116.523,62.458 115.556,62.128 114.589,61.797 C113.095,65.935 111.516,70.052 110.135,74.229 C109.784,75.29 109.055,76.561 110.314,77.228 C110.825,77.499 111.735,77.625 111.981,76.982 C111.996,76.897 111.978,76.821 111.926,76.752 C111.886,76.704 111.846,76.657 111.805,76.609 C111.622,76.392 110.508,75.888 110.414,76.431" fill="#373535"/>
      <path d="M152.854,66.3 C151.73,63.58 149.038,60.987 145.855,62.248 C144.223,62.895 143.205,64.677 142.389,66.137 C141.289,68.106 140.568,70.251 140.287,72.49 C140.109,73.913 139.745,76.171 140.826,77.321 C141.742,78.296 143.593,78.682 144.769,77.988 C145.61,77.491 146.168,76.481 146.738,75.725 C147.523,74.685 148.317,73.653 149.114,72.623 C150.708,70.561 152.313,68.51 153.869,66.42 C153.159,66.177 152.448,65.934 151.737,65.691 C151.422,67.538 151.047,69.368 150.804,71.228 C150.63,72.561 150.06,74.534 150.488,75.856 C151.104,77.76 153.636,77.649 155.029,76.819 C157.615,75.28 159.807,72.257 161.734,69.991 C163.98,67.349 165.813,64.423 167.979,61.733 C168.561,61.01 166.61,60.715 166.234,60.847 C163.777,61.709 163.09,64.319 163.62,66.676 C163.958,68.182 165.383,69.587 165.412,71.086 C165.47,74.024 161.511,74.006 159.529,73.542 C159.631,73.969 159.733,74.397 159.836,74.825 C169.765,74.309 179.656,73.009 189.625,73.359 C190.297,73.383 190.938,73.001 190.599,72.302 C190.26,71.604 188.912,71.285 188.227,71.321 C178.388,71.839 168.357,71.689 158.631,73.49 C157.348,73.727 159.01,74.758 159.532,74.809 C162.101,75.06 167.892,75.661 167.849,71.53 C167.829,69.652 166.089,68.202 165.823,66.315 C165.564,64.483 166.115,62.681 167.845,61.827 C167.239,61.573 166.633,61.32 166.027,61.066 C163.862,65.333 160.194,69.218 156.857,72.597 C156.09,73.374 155.314,74.152 154.501,74.882 C154.313,75.051 153.272,76.148 152.941,76.054 C152.298,75.871 152.634,74.247 152.673,73.882 C152.94,71.338 153.302,68.761 153.948,66.283 C154.15,65.511 152.237,65.082 151.816,65.555 C149.891,67.714 148.019,69.92 146.133,72.113 C145.189,73.21 144.247,74.311 143.278,75.386 C143.016,75.702 142.738,76.005 142.445,76.292 C142.81,76.396 143.177,76.5 143.543,76.605 C143.688,76.476 143.487,74.508 143.502,74.281 C143.663,71.846 144.364,69.444 145.487,67.278 C145.995,66.3 146.745,64.84 147.676,64.151 C149.094,63.103 150.196,65.132 150.89,66.195 C151.167,66.619 153.145,67.007 152.854,66.3" fill="#373535"/>
      <path d="M3.207,75.929 C0.629,75.181 -0.049,75.092 1.175,75.662 C1.432,75.776 1.698,75.854 1.975,75.896 C2.673,76.03 3.235,75.909 3.928,75.787 C5.374,75.533 6.813,75.234 8.259,74.972 C11.385,74.405 14.518,73.875 17.657,73.384 C23.901,72.407 30.172,71.6 36.461,70.982 C42.652,70.374 48.857,69.918 55.072,69.642 C61.401,69.36 67.725,69.442 74.053,69.283 C73.307,68.834 72.56,68.386 71.812,67.936 C71.47,68.679 70.932,69.077 70.169,69.321 C69.273,69.607 70.139,70.308 70.675,70.426 C72.355,70.793 73.898,70.499 74.924,69 C75.625,67.977 73.391,67.485 72.798,67.454 C60.736,66.819 48.421,67.561 36.405,68.635 C24.432,69.704 12.525,71.386 0.736,73.737 C-0.15,73.915 -0.183,74.577 0.354,75.164 C0.976,75.844 2.339,76.099 3.207,75.929" fill="#373535"/>
      <path d="M204.699,38.168 C203.571,38.628 203.676,38.859 203.48,40.083 C203.301,41.195 203.15,42.31 202.956,43.419 C202.566,45.64 202.094,47.848 201.59,50.047 C200.553,54.574 199.301,59.05 198.115,63.54 C196.963,67.905 195.815,72.286 194.999,76.729 C194.23,80.915 193.146,85.852 194.095,90.077 C194.227,90.67 195.981,91.223 196.2,90.492 C196.834,88.37 196.876,86.088 197.174,83.899 C197.476,81.675 197.859,79.466 198.304,77.266 C199.223,72.724 200.376,68.239 201.574,63.763 C202.745,59.385 203.913,55.006 204.872,50.575 C205.35,48.367 205.754,46.143 206.078,43.907 C206.24,42.787 206.392,41.667 206.471,40.538 C206.559,39.269 206.605,39.241 205.674,38.363 C205.442,38.145 204.995,38.047 204.699,38.168" fill="#373535"/>
      <path d="M233.043,0.477 C229.826,18.04 227.363,35.77 224.966,53.461 C222.566,71.178 220.403,88.924 218.498,106.702 C217.973,111.61 217.493,116.524 217.027,121.438 C216.536,126.601 215.885,131.792 215.814,136.982 C215.805,137.657 217.608,138.189 217.736,137.497 C219.364,128.715 219.953,119.644 220.976,110.772 C221.992,101.962 223.066,93.159 224.173,84.361 C226.405,66.632 228.803,48.925 231.418,31.248 C232.898,21.246 234.519,11.264 235.942,1.254 C236.092,0.196 233.226,-0.521 233.043,0.477" fill="#373535"/>
      <path d="M147.887,93.494 C146.743,94.432 145.393,95.132 144.156,95.942 C142.796,96.832 145.735,97.808 146.451,97.616 C152.086,96.1 157.583,93.656 163.093,91.729 C168.775,89.741 174.483,87.826 180.24,86.064 C191.525,82.611 203.02,79.715 214.709,78.016 C221.516,77.027 228.328,76.747 235.176,76.264 C236.243,76.188 235.337,75.337 234.723,75.298 C222.919,74.54 210.674,76.485 199.157,78.941 C187.168,81.497 175.422,85.072 163.812,88.979 C160.559,90.074 157.317,91.197 154.079,92.334 C150.794,93.489 147.303,94.454 144.156,95.942 L146.967,97.368 C147.789,96.295 148.492,95.108 149.446,94.15 C149.911,93.684 148.307,93.15 147.887,93.494" fill="#373535"/>
      <path d="M249.473,68.557 C248.721,65.415 245.7,63.604 242.603,65.162 C239.038,66.955 236.534,71.246 235.652,75.006 C235.267,76.647 234.973,78.328 236.675,79.251 C238.045,79.995 239.814,80.059 241.232,79.407 C243.003,78.593 244.165,76.87 245.302,75.368 C246.954,73.186 248.5,70.936 250.068,68.693 C249.251,68.413 248.433,68.134 247.616,67.855 C246.854,71.071 245.551,78.401 251.088,77.593 C253.162,77.291 254.767,75.511 255.998,73.957 C257.516,72.04 258.714,69.833 259.113,67.406 C259.195,66.909 257.987,66.617 257.771,67.046 C256.312,69.938 254.719,72.605 252.254,74.758 C251.795,75.159 251.057,75.958 250.426,76.007 C249.272,76.099 249.497,75.011 249.478,74.234 C249.429,72.306 249.703,70.404 250.159,68.536 C250.366,67.686 248.145,67.079 247.707,67.698 C246.042,70.049 244.234,72.305 242.389,74.516 C241.62,75.437 240.867,76.426 239.939,77.196 C239.551,77.518 238.832,78.27 238.469,77.569 C238.344,77.327 238.684,76.089 238.738,75.833 C239.257,73.388 240.377,71.11 241.953,69.176 C242.671,68.295 243.466,67.413 244.413,66.775 C246.209,65.566 247.384,66.93 248.147,68.485 C248.305,68.806 249.599,69.081 249.473,68.557" fill="#373535"/>
      <path d="M260.157,65.757 C261.756,62.526 262.788,58.962 263.976,55.564 C265.18,52.119 266.029,48.738 266.583,45.134 C266.7,44.374 264.863,43.928 264.532,44.585 C263.139,47.347 262.362,50.489 261.484,53.447 C260.563,56.549 259.682,59.664 258.843,62.789 C257.197,68.918 255.73,75.091 254.414,81.299 C254.19,82.359 256.641,82.854 257.233,82.263 C261.695,77.803 263.239,70.897 268.832,67.51 C268.06,67.187 267.289,66.864 266.517,66.541 C265.926,68.997 264.999,72.892 266.179,75.318 C267.114,77.24 269.593,77.303 271.291,76.495 C276.154,74.183 280.029,69.044 280.67,63.7 C280.724,63.25 279.585,62.935 279.419,63.365 C277.988,67.071 275.873,70.471 272.785,73.022 C271.936,73.723 271.025,74.349 270.069,74.893 C269.167,75.406 268.678,75.605 268.381,74.498 C267.804,72.348 268.483,69.319 269.095,67.232 C269.359,66.334 267.293,65.999 266.781,66.263 C260.768,69.358 259.063,76.536 254.518,81.119 C255.458,81.44 256.398,81.761 257.337,82.083 C258.622,75.868 260.053,69.683 261.634,63.537 C262.41,60.519 263.224,57.511 264.077,54.514 C264.953,51.434 266.117,48.306 266.583,45.134 C265.9,45 265.216,44.865 264.532,44.731 C264.719,51.901 260.492,58.585 259.12,65.479 C259.044,65.858 259.994,66.088 260.157,65.757" fill="#373535"/>
      <path d="M279.961,64.058 C280.669,63.234 281.274,62.561 282.209,61.965 C281.564,61.638 280.92,61.311 280.275,60.984 C278.433,63.237 277.594,66.854 276.673,69.591 C275.631,72.692 274.722,75.835 273.912,79.004 C273.639,80.069 276.282,80.677 276.862,80.013 C280.453,75.895 283.98,71.71 287.451,67.491 C286.589,67.196 285.726,66.901 284.864,66.607 C284.671,68.778 284.282,70.977 284.204,73.154 C284.155,74.55 284.539,75.617 285.804,76.312 C288.609,77.851 292.484,76.419 294.522,74.272 C294.953,73.818 293.521,73.423 293.207,73.605 C291.779,74.431 286.611,77.146 286.731,73.831 C286.809,71.674 287.247,69.461 287.547,67.326 C287.68,66.376 285.509,65.836 284.96,66.441 C281.261,70.515 277.602,74.638 274.021,78.816 C275.004,79.152 275.987,79.488 276.971,79.824 C277.723,76.761 278.57,73.724 279.535,70.72 C280,69.274 280.473,67.829 280.973,66.394 C281.497,64.892 282.327,63.311 282.438,61.723 C282.495,60.907 280.315,60.345 280.195,61.122 C280.044,62.108 279.634,62.848 279.125,63.706 C278.934,64.027 279.766,64.284 279.961,64.058" fill="#373535"/>
      <path d="M295.651,73.116 C297.323,71.94 304.438,65.527 300.283,63.79 C296.063,62.027 293.505,68.522 292.845,71.498 C292.447,73.297 291.949,75.714 293.673,76.954 C295.291,78.118 297.589,77.949 299.396,77.423 C303.94,76.101 307.203,71.892 309.502,67.982 C312.582,62.748 314.147,56.914 315.9,51.15 C316.083,50.55 314.411,50.104 314.152,50.682 C311.472,56.643 309.274,62.884 308.339,69.385 C308.026,71.564 307.978,74.032 309.507,75.795 C311.023,77.544 313.457,77.992 315.664,77.986 C318.974,77.977 322.328,77.477 325.626,77.198 C329.328,76.884 333.032,76.572 336.735,76.258 C343.927,75.65 351.117,75.065 358.317,74.594 C360.506,74.451 358.324,72.598 357.041,72.734 C344.769,74.038 332.46,75.022 320.161,76.086 C317.745,76.294 312.958,77.575 311.36,75.167 C309.92,72.997 310.666,69.848 311.089,67.485 C312.086,61.916 313.687,56.361 315.9,51.15 C315.318,50.994 314.735,50.838 314.152,50.682 C311.758,58.896 308.027,68.413 301.077,73.86 C300.248,74.51 299.345,75.1 298.371,75.511 C297.833,75.738 297.073,76.076 296.478,76.08 C295.531,76.084 295.476,75.856 295.378,74.842 C295.178,72.772 295.99,70.335 296.853,68.489 C297.331,67.466 297.867,66.299 298.711,65.526 C300.18,64.179 299.036,66.405 298.734,66.992 C297.653,69.094 296.056,70.974 294.304,72.549 C293.883,72.928 295.282,73.375 295.651,73.116" fill="#373535"/>
      <path d="M243.716,58.458 C244.381,58.458 244.849,58.15 244.606,57.494 C244.359,56.829 243.018,56.598 242.44,56.598 C241.775,56.598 241.307,56.906 241.551,57.563 C241.798,58.227 243.139,58.458 243.716,58.458" fill="#373535"/>
      <path d="M248.247,57.033 C248.224,57.072 248.2,57.112 248.176,57.153 C248.318,57.085 248.459,57.017 248.601,56.949 C248.214,57.071 247.707,57.188 247.775,57.696 C247.813,57.974 248.191,58.269 248.401,58.391 C248.72,58.577 249.063,58.699 249.425,58.77 C249.744,58.833 250.113,58.879 250.432,58.797 C250.663,58.738 250.887,58.662 251.012,58.446 C251.353,57.856 250.355,57.332 249.969,57.185 C250.215,57.365 250.462,57.545 250.709,57.724 L250.602,57.501 C250.535,57.362 250.335,57.23 250.209,57.153 C249.969,57.004 249.696,56.916 249.422,56.861 C249.21,56.82 249.004,56.802 248.789,56.825 C248.637,56.842 248.335,56.884 248.247,57.033" fill="#373535"/>
    </g>
  </g>
</svg>
